<svg xmlns="http://www.w3.org/2000/svg" xmlns:xlink="http://www.w3.org/1999/xlink" fill="#ffffff" id="Layer_1" viewBox="0 0 512 512" xml:space="preserve"><g>	<g>		<rect y="348.485" width="512" height="15.642"></rect>	</g></g><g>	<g>		<path d="M256,84.264c-114.71,0-208.033,93.227-208.033,207.82v24.081h15.642v-24.081c0-105.968,86.307-192.178,192.391-192.178   s192.391,86.21,192.391,192.178v24.081h15.642v-24.081C464.033,177.491,370.71,84.264,256,84.264z"></path>	</g></g><g>	<g>		<path d="M440.049,324.507v-32.423c0-101.358-82.564-183.819-184.049-183.819S71.951,190.725,71.951,292.084v32.423H39.625v15.642   h47.967v-48.064c0-29.019,7.4-56.345,20.411-80.196h44.175v16.017h207.641v-16.017h44.178c13.011,23.85,20.41,51.176,20.41,80.196   v48.064h47.967v-15.642H440.049z M344.178,212.263H167.82v-16.358h176.357V212.263z M359.819,196.245v-15.982H152.179v15.982   h-34.483c30.447-43.686,81.084-72.34,138.305-72.34s107.858,28.654,138.306,72.34H359.819z"></path>	</g></g><g>	<g>		<path d="M143.902,235.87v104.277h15.642v-16.684h16.684v-15.642h-16.684v-8.342h192.912v8.342h-16.684v15.642h16.684v16.684   h15.642V235.87H143.902z M352.456,259.854h-16.684v15.642h16.684v8.342H159.544v-8.342h16.684v-15.642h-16.684v-8.342h192.912   V259.854z"></path>	</g></g><g>	<g>		<rect x="183.528" y="307.817" width="16.684" height="15.642"></rect>	</g></g><g>	<g>		<rect x="311.788" y="307.817" width="16.684" height="15.642"></rect>	</g></g><g>	<g>		<rect x="207.511" y="307.817" width="96.978" height="15.642"></rect>	</g></g><g>	<g>		<rect x="183.528" y="259.85" width="144.945" height="15.642"></rect>	</g></g><g>	<g>		<rect x="224.196" y="148.274" width="15.642" height="15.642"></rect>	</g></g><g>	<g>		<rect x="248.179" y="148.274" width="15.642" height="15.642"></rect>	</g></g><g>	<g>		<rect x="272.163" y="148.274" width="15.642" height="15.642"></rect>	</g></g><g>	<g>		<rect x="47.967" y="379.768" width="39.625" height="15.642"></rect>	</g></g><g>	<g>		<rect x="87.593" y="396.453" width="80.293" height="15.642"></rect>	</g></g><g>	<g>		<rect x="32.326" y="412.094" width="15.642" height="15.642"></rect>	</g></g><g>	<g>		<rect x="215.853" y="412.094" width="136.603" height="15.642"></rect>	</g></g><g>	<g>		<rect x="191.87" y="372.469" width="63.609" height="15.642"></rect>	</g></g><g>	<g>		<rect x="255.479" y="388.111" width="16.684" height="15.642"></rect>	</g></g><g>	<g>		<rect x="376.44" y="388.111" width="23.984" height="15.642"></rect>	</g></g><g>	<g>		<rect x="400.424" y="403.752" width="47.967" height="15.642"></rect>	</g></g><g>	<g>		<rect x="488.016" y="372.469" width="15.642" height="15.642"></rect>	</g></g></svg>