<?xml version="1.0" encoding="UTF-8"?>
<svg width="146px" height="102px" viewBox="0 0 146 102" version="1.1" xmlns="http://www.w3.org/2000/svg" xmlns:xlink="http://www.w3.org/1999/xlink">
    <title>AAA0D3E7-A4F3-4314-83F8-97A7CC9E366F</title>
    <defs>
        <polygon id="path-1" points="143.315 1.77635684e-15 0 26.4343 30.587 192.2632 173.902 165.8282"></polygon>
    </defs>
    <g id="Page-1" stroke="none" stroke-width="1" fill="none" fill-rule="evenodd">
        <g id="about-us" transform="translate(-228.000000, -2261.000000)">
            <g id="svgexport-1" transform="translate(301.951000, 2318.131600) scale(-1, -1) rotate(12.000000) translate(-301.951000, -2318.131600) translate(215.000000, 2222.000000)">
                <g id="Clipped">
                    <mask id="mask-2" fill="white">
                        <use xlink:href="#path-1"></use>
                    </mask>
                    <g id="Path"></g>
                </g>
                <g id="Group" transform="translate(14.160842, 47.222135)">
                    <path d="M37.4441581,86.9780648 C34.8521581,88.9900648 31.3891581,90.6420648 27.0241581,91.9270648 C24.3421581,92.7090648 22.5231581,95.3590648 23.0411581,98.1660648 L25.1641581,109.675065 C25.7411581,112.800065 28.9651581,114.739065 31.9631581,113.597065 C40.5081581,110.323065 47.5801581,106.472065 53.1601581,102.005065 C59.7891581,96.7150648 64.8151581,91.0230648 68.1981581,84.9350648 C71.5841581,78.9420648 73.5891581,72.7110648 74.1941581,66.2180648 C74.7281581,59.8610648 74.4401581,53.7110648 73.3391581,47.7380648 C71.3451581,36.9313648 66.7831581,28.7758648 59.6021581,23.3079648 C52.3421581,17.9232648 43.7731581,16.1761648 33.9091581,17.9954648 C28.9441581,18.9112648 24.6711581,20.6169648 21.1301581,23.1051648 C17.6421581,25.6656648 14.7771581,28.5632648 12.5651581,31.8195648 C10.3701581,35.1686648 8.94815805,38.7860648 8.29715805,42.6580648 C7.65915805,46.5280648 7.68315805,50.3580648 8.38615805,54.1720648 C10.2501581,64.2770648 14.6291581,71.1380648 21.5881581,74.5930648 C26.3441581,76.9880648 31.6751581,78.1280648 37.5391581,78.0180648 C39.1171581,77.9880648 40.5241581,78.7280648 41.2881581,79.7640648 C42.0321581,80.7640648 42.1671581,82.0130648 41.2781581,83.1900648 C40.1781581,84.6250648 38.9081581,85.8860648 37.4441581,86.9780648 Z" id="Path" fill="#70AA25" fill-rule="nonzero"></path>
                    <path d="M108.868158,73.8040648 C106.276158,75.8160648 102.812158,77.4680648 98.4481581,78.7530648 C95.7661581,79.5350648 93.9471581,82.1850648 94.4651581,84.9920648 L96.5881581,96.5010648 C97.1641581,99.6270648 100.389158,101.565065 103.387158,100.423065 C111.931158,97.1490648 119.004158,93.2980648 124.583158,88.8310648 C131.213158,83.5410648 136.239158,77.8490648 139.622158,71.7610648 C143.008158,65.7680648 145.013158,59.5370648 145.618158,53.0440648 C146.152158,46.6870648 145.864158,40.5370648 144.762158,34.5642648 C142.769158,23.7574648 138.206158,15.6019648 131.026158,10.1340648 C123.771158,4.77586484 115.199158,3.01546484 105.349158,4.83246484 C100.384158,5.74816484 96.1111581,7.45386484 92.5691581,9.94216484 C89.0821581,12.5025648 86.2171581,15.4001648 84.0041581,18.6565648 C81.8101581,22.0056648 80.3881581,25.6229648 79.7371581,29.4952648 C79.0991581,33.3650648 79.1221581,37.1950648 79.8261581,41.0092648 C81.6901581,51.1140648 86.0681581,57.9750648 93.0271581,61.4300648 C97.7841581,63.8250648 103.114158,64.9650648 108.979158,64.8550648 C110.557158,64.8240648 111.963158,65.5650648 112.728158,66.6010648 C113.472158,67.6010648 113.607158,68.8490648 112.718158,70.0270648 C111.617158,71.4620648 110.348158,72.7230648 108.884158,73.8150648 L108.868158,73.8040648 Z" id="Path" fill="#70AA25" fill-rule="nonzero"></path>
                    <path d="M29.6061581,82.8380648 C27.0141581,84.8490648 23.5511581,86.5020648 19.1861581,87.7860648 C16.5041581,88.5680648 14.6861581,91.2180648 15.2031581,94.0260648 L17.3261581,105.534065 C17.9031581,108.660065 21.1281581,110.598065 24.1261581,109.457065 C32.6701581,106.183065 39.7421581,102.331065 45.3221581,97.8650648 C51.9511581,92.5750648 56.9771581,86.8820648 60.3601581,80.7940648 C63.7471581,74.8010648 65.7511581,68.5700648 66.3561581,62.0770648 C66.8901581,55.7210648 66.6021581,49.5700648 65.5011581,43.5970648 C63.5071581,32.7907648 58.9451581,24.6352648 51.7651581,19.1672648 C44.5041581,13.7826648 35.9351581,12.0354648 26.0711581,13.8548648 C21.1061581,14.7706648 16.8331581,16.4763648 13.2921581,18.9645648 C9.80515805,21.5249648 6.93915805,24.4225648 4.72715805,27.6789648 C2.53215805,31.0280648 1.11015805,34.6453648 0.459158053,38.5176648 C-0.178841947,42.3880648 -0.154841947,46.2170648 0.549158053,50.0320648 C2.41215805,60.1370648 6.79115805,66.9980648 13.7501581,70.4520648 C18.5061581,72.8480648 23.8371581,73.9870648 29.7011581,73.8780648 C31.2791581,73.8470648 32.6861581,74.5870648 33.4501581,75.6240648 C34.1951581,76.6230648 34.3291581,77.8720648 33.4411581,79.0490648 C32.3401581,80.4850648 31.0711581,81.7460648 29.6061581,82.8380648 Z" id="Path" stroke="#022A1E" stroke-width="1.5"></path>
                    <path d="M28.8011581,73.8930648 C25.7111581,73.9430648 22.7761581,73.6490648 19.9961581,73.0110648 C20.2861581,73.1770648 20.5671581,73.3720648 20.8681581,73.5220648 C24.6001581,75.3940648 28.6791581,76.4900648 33.0971581,76.8260648 C33.0191581,76.4020648 32.8221581,76.0000648 32.5481581,75.6260648 C31.7861581,74.6030648 30.3791581,73.8620648 28.7991581,73.8800648 L28.8011581,73.8930648 Z" id="Path" fill="#022A1E" fill-rule="nonzero"></path>
                    <path d="M58.8971581,22.2340648 C55.4021581,19.6468648 48.6411581,15.6353648 44.2381581,14.3387648 C45.3951581,14.9879648 49.7741581,18.3707648 50.8761581,19.1670648 C58.0571581,24.6349648 62.6221581,32.8036648 64.6131581,43.5970648 C65.7121581,49.5570648 66.0021581,55.7200648 65.4651581,62.0640648 C64.8611581,68.5570648 62.8581581,74.8010648 59.4691581,80.7810648 C56.0861581,86.8690648 51.0741581,92.5590648 44.4311581,97.8510648 C39.1341581,102.074065 28.5861581,106.991065 20.6491581,110.153065 C25.2201581,112.432065 30.0141581,112.958065 32.9111581,111.862065 C41.4551581,108.588065 46.8721581,105.385065 52.4651581,100.916065 C59.0941581,95.6260648 64.1201581,89.9330648 67.5031581,83.8450648 C70.8901581,77.8520648 72.8951581,71.6220648 73.4991581,65.1290648 C74.0341581,58.7720648 73.7461581,52.6210648 72.6441581,46.6490648 C70.6511581,35.8418648 66.0881581,27.6863648 58.9081581,22.2183648 L58.8971581,22.2340648 Z" id="Path" fill="#022A1E" fill-rule="nonzero"></path>
                    <path d="M101.030158,69.6640648 C98.4381581,71.6760648 94.9751581,73.3280648 90.6101581,74.6120648 C87.9281581,75.3940648 86.1091581,78.0440648 86.6271581,80.8520648 L88.7501581,92.3600648 C89.3261581,95.4860648 92.5511581,97.4250648 95.5491581,96.2830648 C104.093158,93.0090648 111.166158,89.1570648 116.746158,84.6910648 C123.375158,79.4010648 128.401158,73.7080648 131.784158,67.6200648 C135.170158,61.6270648 137.175158,55.3970648 137.780158,48.9040648 C138.314158,42.5470648 138.026158,36.3964648 136.924158,30.4235648 C134.931158,19.6168648 130.368158,11.4613648 123.188158,5.99336484 C115.933158,0.635264838 107.361158,-1.12513516 97.5111581,0.691764838 C92.5461581,1.60756484 88.2731581,3.31326484 84.7311581,5.80146484 C81.2441581,8.36186484 78.3791581,11.2594648 76.1671581,14.5158648 C73.9721581,17.8649648 72.5501581,21.4823648 71.8991581,25.3546648 C71.2611581,29.2244648 71.2851581,33.0544648 71.9881581,36.8686648 C73.8521581,46.9730648 78.2301581,53.8350648 85.1891581,57.2890648 C89.9461581,59.6850648 95.2761581,60.8240648 101.141158,60.7150648 C102.719158,60.6840648 104.125158,61.4240648 104.890158,62.4610648 C105.634158,63.4600648 105.769158,64.7090648 104.880158,65.8860648 C103.779158,67.3220648 102.510158,68.5830648 101.046158,69.6750648 L101.030158,69.6640648 Z" id="Path" stroke="#022A1E" stroke-width="1.5"></path>
                    <path d="M100.225158,60.7190648 C97.1351581,60.7690648 94.2001581,60.4750648 91.4191581,59.8370648 C91.7091581,60.0030648 91.9911581,60.1970648 92.2921581,60.3470648 C96.0231581,62.2200648 100.103158,63.3160648 104.521158,63.6510648 C104.442158,63.2280648 104.245158,62.8260648 103.972158,62.4520648 C103.209158,61.4280648 101.803158,60.6880648 100.223158,60.7060648 L100.225158,60.7190648 Z" id="Path" fill="#022A1E" fill-rule="nonzero"></path>
                    <path d="M130.307158,9.06216484 C126.813158,6.47496484 120.051158,2.46356484 115.648158,1.16686484 C116.805158,1.81606484 121.184158,5.19886484 122.287158,5.99516484 C129.467158,11.4630648 134.032158,19.6318648 136.023158,30.4253648 C137.122158,36.3849648 137.412158,42.5490648 136.876158,48.8920648 C136.271158,55.3850648 134.269158,61.6290648 130.879158,67.6090648 C127.497158,73.6970648 122.484158,79.3870648 115.841158,84.6790648 C110.544158,88.9020648 99.9961581,93.8190648 92.0591581,96.9810648 C96.6301581,99.2600648 101.424158,99.7860648 104.321158,98.6910648 C112.865158,95.4170648 118.282158,92.2130648 123.875158,87.7440648 C130.505158,82.4540648 135.531158,76.7610648 138.913158,70.6730648 C142.300158,64.6810648 144.305158,58.4500648 144.909158,51.9570648 C145.444158,45.6000648 145.156158,39.4495648 144.054158,33.4767648 C142.061158,22.6699648 137.498158,14.5144648 130.318158,9.04656484 L130.307158,9.06216484 Z" id="Path" fill="#022A1E" fill-rule="nonzero"></path>
                </g>
            </g>
        </g>
    </g>
</svg>